<svg xmlns="http://www.w3.org/2000/svg" viewBox="0 0 390 844" width="390" height="844">
  <rect width="390" height="844" fill="#0a0a0a"/>
  <rect x="20" y="20" width="350" height="804" rx="44" fill="none" stroke="#e8e8e8" stroke-width="2.5"/>
  <rect x="130" y="40" width="130" height="32" rx="16" fill="none" stroke="#b0b0b0" stroke-width="2"/>
  <!-- notif tick -->
  <text x="48" y="80" fill="#6a6a6a" font-family="system-ui, Inter, sans-serif" font-size="10">[ bell ]</text>
  <line x1="70" y1="70" x2="100" y2="65" stroke="#555" stroke-width="0.6"/>
  <text x="105" y="70" fill="#4a4a4a" font-family="system-ui, Inter, sans-serif" font-size="9">end-of-day nudge</text>
  <circle cx="195" cy="200" r="64" fill="none" stroke="#b8b8b8" stroke-width="1.5"/>
  <line x1="195" y1="200" x2="195" y2="170" stroke="#888" stroke-width="1.2"/>
  <circle cx="195" cy="195" r="3" fill="#888"/>
  <line x1="100" y1="300" x2="220" y2="304" stroke="#888" stroke-width="0.8" stroke-linecap="round"/>
  <line x1="100" y1="316" x2="260" y2="314" stroke="#888" stroke-width="0.8" stroke-linecap="round"/>
  <line x1="100" y1="332" x2="200" y2="334" stroke="#888" stroke-width="0.8" stroke-linecap="round"/>
  <text x="100" y="360" fill="#8a8a8a" font-family="system-ui, Inter, sans-serif" font-size="14" font-style="italic">Permission to stop</text>
  <line x1="48" y1="400" x2="340" y2="402" stroke="#555" stroke-width="0.6"/>
  <line x1="48" y1="412" x2="300" y2="410" stroke="#555" stroke-width="0.6"/>
  <line x1="48" y1="424" x2="220" y2="426" stroke="#555" stroke-width="0.6"/>
  <line x1="48" y1="436" x2="280" y2="434" stroke="#555" stroke-width="0.6"/>
  <line x1="48" y1="448" x2="180" y2="450" stroke="#555" stroke-width="0.6"/>
  <!-- step -->
  <text x="40" y="500" fill="#5a5a5a" font-family="system-ui, Inter, sans-serif" font-size="11">Step 2 / 4  acknowledge closure</text>
  <rect x="40" y="530" width="310" height="56" rx="14" fill="none" stroke="#c8c8c8" stroke-width="2"/>
  <line x1="60" y1="550" x2="80" y2="550" stroke="#888" stroke-width="0.7"/>
  <line x1="100" y1="550" x2="320" y2="552" stroke="#888" stroke-width="0.7"/>
  <line x1="100" y1="562" x2="280" y2="560" stroke="#888" stroke-width="0.7"/>
  <text x="100" y="560" fill="#a0a0a0" font-family="system-ui, Inter, sans-serif" font-size="12">Im leaving work in this box today.</text>
  <rect x="40" y="680" width="310" height="56" rx="16" fill="none" stroke="#d8d8d8" stroke-width="2.2"/>
  <text x="195" y="714" text-anchor="middle" fill="#d0d0d0" font-family="system-ui, Inter, sans-serif" font-size="16" font-weight="600">Continue handoff</text>
  <text x="195" y="800" text-anchor="middle" fill="#4a4a4a" font-family="system-ui, Inter, sans-serif" font-size="10">[ footer: Minimize / pause ritual ]</text>
</svg>
