<svg xmlns="http://www.w3.org/2000/svg" viewBox="0 0 390 844" width="390" height="844">
  <rect width="390" height="844" fill="#0a0a0a"/>
  <rect x="20" y="20" width="350" height="804" rx="44" fill="none" stroke="#e8e8e8" stroke-width="2.5"/>
  <rect x="130" y="40" width="130" height="32" rx="16" fill="none" stroke="#b0b0b0" stroke-width="2"/>
  <text x="40" y="95" fill="#5a5a5a" font-family="system-ui, Inter, sans-serif" font-size="11">Off-hours</text>
  <text x="40" y="128" fill="#b8b8b8" font-family="system-ui, Inter, sans-serif" font-size="18" font-weight="600">Still looping on work?</text>
  <line x1="40" y1="155" x2="320" y2="152" stroke="#666" stroke-width="0.7" stroke-linecap="round"/>
  <line x1="40" y1="168" x2="260" y2="170" stroke="#666" stroke-width="0.7" stroke-linecap="round"/>
  <line x1="40" y1="181" x2="200" y2="182" stroke="#666" stroke-width="0.7" stroke-linecap="round"/>
  <text x="40" y="220" fill="#5a5a5a" font-family="system-ui, Inter, sans-serif" font-size="12">Gentle option  not a block</text>
  <rect x="32" y="240" width="326" height="64" rx="12" fill="none" stroke="#8a8a8a" stroke-width="1.4"/>
  <line x1="50" y1="260" x2="90" y2="260" stroke="#777" stroke-width="0.8"/>
  <line x1="100" y1="262" x2="300" y2="264" stroke="#777" stroke-width="0.8" stroke-linecap="round"/>
  <line x1="100" y1="276" x2="240" y2="275" stroke="#777" stroke-width="0.8" stroke-linecap="round"/>
  <text x="50" y="285" fill="#6a6a6a" font-family="system-ui, Inter, sans-serif" font-size="11">Save to vault for tomorrow (one tap)</text>
  <rect x="32" y="320" width="326" height="64" rx="12" fill="none" stroke="#6a6a6a" stroke-width="1.2"/>
  <line x1="100" y1="348" x2="180" y2="350" stroke="#666" stroke-width="0.8" stroke-linecap="round"/>
  <line x1="100" y1="360" x2="280" y2="358" stroke="#666" stroke-width="0.8" stroke-linecap="round"/>
  <text x="50" y="355" fill="#5a5a5a" font-family="system-ui, Inter, sans-serif" font-size="11">60s breathing + soft sound</text>
  <rect x="32" y="400" width="326" height="64" rx="12" fill="none" stroke="#6a6a6a" stroke-width="1.2"/>
  <line x1="100" y1="430" x2="200" y2="428" stroke="#666" stroke-width="0.8" stroke-linecap="round"/>
  <line x1="100" y1="440" x2="300" y2="442" stroke="#666" stroke-width="0.8" stroke-linecap="round"/>
  <text x="50" y="435" fill="#5a5a5a" font-family="system-ui, Inter, sans-serif" font-size="11">Distract: tiny puzzle / poem</text>
  <text x="40" y="500" fill="#3a3a3a" font-family="system-ui, Inter, sans-serif" font-size="11">Analytics: [ event: off_hours_rumination_shown ]</text>
  <text x="40" y="520" fill="#3a3a3a" font-family="system-ui, Inter, sans-serif" font-size="11">A11y: focus order · large hit targets</text>
  <rect x="50" y="600" width="290" height="40" rx="8" fill="none" stroke="#3a3a3a" stroke-width="1"/>
  <text x="195" y="625" text-anchor="middle" fill="#3a3a3a" font-family="system-ui, Inter, sans-serif" font-size="12">[ maybe later  return home ]</text>
  <line x1="20" y1="730" x2="370" y2="730" stroke="#2a2a2a" stroke-width="1"/>
  <text x="195" y="800" text-anchor="middle" fill="#4a4a4a" font-family="system-ui, Inter, sans-serif" font-size="10">[ footer nav dimmed ]</text>
</svg>
