<svg xmlns="http://www.w3.org/2000/svg" viewBox="0 0 390 844" width="390" height="844">
  <rect width="390" height="844" fill="#0a0a0a"/>
  <rect x="20" y="20" width="350" height="804" rx="44" fill="none" stroke="#e8e8e8" stroke-width="2.5"/>
  <rect x="130" y="40" width="130" height="32" rx="16" fill="none" stroke="#b0b0b0" stroke-width="2"/>
  <text x="40" y="100" fill="#6a6a6a" font-family="system-ui, Inter, sans-serif" font-size="12">×</text>
  <text x="80" y="100" fill="#c8c8c8" font-family="system-ui, Inter, sans-serif" font-size="16" font-weight="600">Evening quick capture</text>
  <line x1="40" y1="125" x2="120" y2="128" stroke="#666" stroke-width="0.6"/>
  <line x1="40" y1="138" x2="90" y2="138" stroke="#666" stroke-width="0.6"/>
  <text x="40" y="180" fill="#5a5a5a" font-family="system-ui, Inter, sans-serif" font-size="11">Dictate / type · E2E encrypted in transit</text>
  <rect x="28" y="200" width="334" height="240" rx="10" fill="none" stroke="#7a7a7a" stroke-width="1.3"/>
  <path d="M 48 230 Q 60 224 80 230 T 120 225 T 180 230" fill="none" stroke="#5a5a5a" stroke-width="0.7"/>
  <path d="M 48 250 Q 70 244 100 250 T 160 245 T 220 252" fill="none" stroke="#5a5a5a" stroke-width="0.7"/>
  <path d="M 48 270 Q 55 264 80 270 T 140 265 T 200 270" fill="none" stroke="#5a5a5a" stroke-width="0.7"/>
  <line x1="48" y1="300" x2="300" y2="300" stroke="#4a4a4a" stroke-width="0.5"/>
  <line x1="48" y1="315" x2="220" y2="318" stroke="#4a4a4a" stroke-width="0.5"/>
  <line x1="48" y1="330" x2="280" y2="328" stroke="#4a4a4a" stroke-width="0.5"/>
  <line x1="48" y1="345" x2="150" y2="348" stroke="#4a4a4a" stroke-width="0.5"/>
  <line x1="48" y1="360" x2="250" y2="358" stroke="#4a4a4a" stroke-width="0.5"/>
  <line x1="48" y1="375" x2="200" y2="378" stroke="#4a4a4a" stroke-width="0.5"/>
  <line x1="48" y1="390" x2="180" y2="388" stroke="#4a4a4a" stroke-width="0.5"/>
  <line x1="48" y1="405" x2="220" y2="408" stroke="#4a4a4a" stroke-width="0.5"/>
  <line x1="48" y1="420" x2="160" y2="418" stroke="#4a4a4a" stroke-width="0.5"/>
  <text x="40" y="470" fill="#3a3a3a" font-family="system-ui, Inter, sans-serif" font-size="10">API: POST /vault/entries (device clock + tz)</text>
  <rect x="32" y="500" width="64" height="32" rx="6" fill="none" stroke="#5a5a5a" stroke-width="1"/>
  <text x="64" y="520" text-anchor="middle" fill="#5a5a5a" font-family="system-ui, Inter, sans-serif" font-size="10">[ mic ]</text>
  <text x="110" y="520" fill="#4a4a4a" font-family="system-ui, Inter, sans-serif" font-size="11">Saved ’ sealed until next shift</text>
  <rect x="40" y="680" width="310" height="56" rx="16" fill="none" stroke="#c8c8c8" stroke-width="2"/>
  <text x="195" y="714" text-anchor="middle" fill="#c8c8c8" font-family="system-ui, Inter, sans-serif" font-size="16" font-weight="600">Seal in Vault</text>
  <line x1="20" y1="748" x2="370" y2="748" stroke="#2a2a2a" stroke-width="1"/>
  <text x="195" y="800" text-anchor="middle" fill="#4a4a4a" font-family="system-ui, Inter, sans-serif" font-size="10">[ footer: Home ]</text>
</svg>
