<svg xmlns="http://www.w3.org/2000/svg" viewBox="0 0 390 844" width="390" height="844">
  <rect width="390" height="844" fill="#0a0a0a"/>
  <rect x="20" y="20" width="350" height="804" rx="44" fill="none" stroke="#e8e8e8" stroke-width="2.5"/>
  <rect x="130" y="40" width="130" height="32" rx="16" fill="none" stroke="#b0b0b0" stroke-width="2"/>
  <text x="40" y="100" fill="#7a7a7a" font-family="system-ui, Inter, sans-serif" font-size="12">Tue Apr 22</text>
  <text x="320" y="100" text-anchor="end" fill="#5a5a5a" font-family="system-ui, Inter, sans-serif" font-size="12">[ bell ]</text>
  <text x="40" y="140" fill="#b8b8b8" font-family="system-ui, Inter, sans-serif" font-size="18" font-weight="600">Youre off the clock</text>
  <line x1="40" y1="155" x2="90" y2="156" stroke="#666" stroke-width="0.5"/>
  <!-- state pill -->
  <rect x="40" y="175" width="120" height="32" rx="16" fill="none" stroke="#6a6a6a" stroke-width="1.2"/>
  <line x1="60" y1="191" x2="100" y2="193" stroke="#888" stroke-width="0.6"/>
  <line x1="60" y1="199" x2="130" y2="198" stroke="#888" stroke-width="0.6"/>
  <line x1="200" y1="188" x2="250" y2="190" stroke="#4a4a4a" stroke-width="0.4"/>
  <line x1="200" y1="200" x2="230" y2="198" stroke="#4a4a4a" stroke-width="0.4"/>
  <text x="200" y="201" fill="#3a3a3a" font-family="system-ui, Inter, sans-serif" font-size="10">streak (metric)</text>
  <text x="300" y="198" text-anchor="end" fill="#4a4a4a" font-family="system-ui, Inter, sans-serif" font-size="11">[ i ]</text>
  <!-- sun arc (minimal line) vs original timeline -->
  <path d="M 80 300 A 100 100 0 0 1 300 300" fill="none" stroke="#5a5a5a" stroke-width="1.2"/>
  <circle cx="190" cy="300" r="6" fill="none" stroke="#8a8a8a" stroke-width="1"/>
  <line x1="40" y1="340" x2="80" y2="340" stroke="#4a4a4a" stroke-width="0.5"/>
  <line x1="100" y1="340" x2="200" y2="340" stroke="#4a4a4a" stroke-width="0.5"/>
  <line x1="40" y1="360" x2="120" y2="360" stroke="#4a4a4a" stroke-width="0.5"/>
  <text x="40" y="400" fill="#5a5a5a" font-family="system-ui, Inter, sans-serif" font-size="12">Next: Morning review 9:00</text>
  <text x="40" y="420" fill="#3a3a3a" font-family="system-ui, Inter, sans-serif" font-size="10">+ calendar API hook (opt-in)</text>
  <!-- thought vault summary -->
  <text x="40" y="470" fill="#7a7a7a" font-family="system-ui, Inter, sans-serif" font-size="13" font-weight="500">Vault</text>
  <rect x="32" y="485" width="326" height="100" rx="10" fill="none" stroke="#5a5a5a" stroke-width="1.2"/>
  <line x1="50" y1="505" x2="100" y2="507" stroke="#666" stroke-width="0.6"/>
  <line x1="50" y1="520" x2="280" y2="518" stroke="#666" stroke-width="0.6"/>
  <line x1="50" y1="535" x2="220" y2="538" stroke="#666" stroke-width="0.6"/>
  <line x1="50" y1="550" x2="180" y2="548" stroke="#666" stroke-width="0.6"/>
  <line x1="50" y1="565" x2="250" y2="568" stroke="#666" stroke-width="0.6"/>
  <text x="300" y="550" fill="#4a4a4a" font-family="system-ui, Inter, sans-serif" font-size="10">[ ? ]</text>
  <rect x="32" y="600" width="326" height="48" rx="10" fill="none" stroke="#6a6a6a" stroke-width="1.1"/>
  <line x1="50" y1="620" x2="200" y2="622" stroke="#777" stroke-width="0.6"/>
  <line x1="50" y1="632" x2="160" y2="630" stroke="#777" stroke-width="0.6"/>
  <text x="280" y="630" fill="#4a4a4a" font-family="system-ui, Inter, sans-serif" font-size="10">+ dump</text>
  <line x1="20" y1="680" x2="370" y2="680" stroke="#2a2a2a" stroke-width="1"/>
  <text x="70" y="800" text-anchor="middle" fill="#b0b0b0" font-family="system-ui, Inter, sans-serif" font-size="10">Home</text>
  <text x="195" y="800" text-anchor="middle" fill="#4a4a4a" font-family="system-ui, Inter, sans-serif" font-size="10">Vault</text>
  <text x="320" y="800" text-anchor="middle" fill="#4a4a4a" font-family="system-ui, Inter, sans-serif" font-size="10">Ritual</text>
  <text x="195" y="825" text-anchor="middle" fill="#3a3a3a" font-family="system-ui, Inter, sans-serif" font-size="9">[ You ]</text>
</svg>
