<svg xmlns="http://www.w3.org/2000/svg" viewBox="0 0 390 844" width="390" height="844">
  <rect width="390" height="844" fill="#0a0a0a"/>
  <rect x="20" y="20" width="350" height="804" rx="44" fill="none" stroke="#e8e8e8" stroke-width="2.5"/>
  <rect x="130" y="40" width="130" height="32" rx="16" fill="none" stroke="#b0b0b0" stroke-width="2"/>
  <text x="40" y="100" fill="#6a6a6a" font-family="system-ui, Inter, sans-serif" font-size="12">9</text>
  <text x="80" y="100" fill="#d0d0d0" font-family="system-ui, Inter, sans-serif" font-size="18" font-weight="600">You &amp; data</text>
  <text x="40" y="145" fill="#6a6a6a" font-family="system-ui, Inter, sans-serif" font-size="12" font-weight="600">Account</text>
  <rect x="32" y="158" width="326" height="44" rx="8" fill="none" stroke="#5a5a5a" stroke-width="1"/>
  <line x1="48" y1="178" x2="100" y2="180" stroke="#666" stroke-width="0.5"/>
  <line x1="48" y1="188" x2="200" y2="186" stroke="#666" stroke-width="0.5"/>
  <text x="300" y="186" fill="#4a4a4a" font-family="system-ui, Inter, sans-serif" font-size="10">email</text>
  <text x="40" y="230" fill="#6a6a6a" font-family="system-ui, Inter, sans-serif" font-size="12" font-weight="600">Timezone</text>
  <rect x="32" y="243" width="326" height="44" rx="8" fill="none" stroke="#5a5a5a" stroke-width="1"/>
  <line x1="48" y1="265" x2="180" y2="268" stroke="#666" stroke-width="0.5"/>
  <text x="40" y="310" fill="#6a6a6a" font-family="system-ui, Inter, sans-serif" font-size="12" font-weight="600">Work hours</text>
  <line x1="32" y1="328" x2="200" y2="330" stroke="#4a4a4a" stroke-width="0.4"/>
  <line x1="32" y1="345" x2="180" y2="343" stroke="#4a4a4a" stroke-width="0.4"/>
  <text x="40" y="380" fill="#6a6a6a" font-family="system-ui, Inter, sans-serif" font-size="12" font-weight="600">Interrupt tone</text>
  <line x1="32" y1="405" x2="340" y2="400" stroke="#4a4a4a" stroke-width="0.4"/>
  <circle cx="120" cy="400" r="6" fill="#d0d0d0"/>
  <text x="40" y="450" fill="#6a6a6a" font-family="system-ui, Inter, sans-serif" font-size="12" font-weight="600">Analytics</text>
  <text x="40" y="475" fill="#3a3a3a" font-family="system-ui, Inter, sans-serif" font-size="11">Opt-in: usage events, crash, funnel</text>
  <rect x="32" y="490" width="50" height="28" rx="6" fill="none" stroke="#5a5a5a" stroke-width="1"/>
  <line x1="40" y1="500" x2="48" y2="508" stroke="#666" stroke-width="0.5"/>
  <line x1="40" y1="520" x2="300" y2="518" stroke="#3a3a3a" stroke-width="0.3"/>
  <line x1="40" y1="532" x2="260" y2="534" stroke="#3a3a3a" stroke-width="0.3"/>
  <text x="40" y="580" fill="#6a6a6a" font-family="system-ui, Inter, sans-serif" font-size="12" font-weight="600">API &amp; integrations</text>
  <line x1="32" y1="598" x2="220" y2="600" stroke="#4a4a4a" stroke-width="0.4"/>
  <line x1="32" y1="612" x2="180" y2="610" stroke="#4a4a4a" stroke-width="0.4"/>
  <line x1="32" y1="626" x2="250" y2="628" stroke="#4a4a4a" stroke-width="0.4"/>
  <line x1="20" y1="700" x2="370" y2="700" stroke="#2a2a2a" stroke-width="1"/>
  <text x="70" y="800" text-anchor="middle" fill="#4a4a4a" font-family="system-ui, Inter, sans-serif" font-size="10">Home</text>
  <text x="195" y="800" text-anchor="middle" fill="#4a4a4a" font-family="system-ui, Inter, sans-serif" font-size="10">Vault</text>
  <text x="320" y="800" text-anchor="middle" fill="#b0b0b0" font-family="system-ui, Inter, sans-serif" font-size="10">You</text>
</svg>
