<svg xmlns="http://www.w3.org/2000/svg" viewBox="0 0 1800 520" width="1800" height="520">
  <rect width="1800" height="520" fill="#0a0a0a"/>
  <text x="40" y="50" fill="#5a5a5a" font-family="system-ui, Inter, sans-serif" font-size="14">Handoff ritual  key steps (read left Æ right)</text>
  <!-- 4 micro-phones in a row -->
  <g id="A">
    <rect x="40" y="80" width="360" height="400" rx="40" fill="none" stroke="#b8b8b8" stroke-width="2"/>
    <rect x="175" y="100" width="90" height="24" rx="10" fill="none" stroke="#6a6a6a" stroke-width="1"/>
    <line x1="60" y1="160" x2="120" y2="162" stroke="#666" stroke-width="0.5"/>
    <line x1="60" y1="175" x2="100" y2="174" stroke="#666" stroke-width="0.5"/>
    <line x1="60" y1="200" x2="300" y2="202" stroke="#777" stroke-width="0.6" stroke-linecap="round"/>
    <line x1="60" y1="220" x2="280" y2="218" stroke="#777" stroke-width="0.6" stroke-linecap="round"/>
    <line x1="60" y1="240" x2="200" y2="242" stroke="#777" stroke-width="0.6" stroke-linecap="round"/>
    <line x1="60" y1="280" x2="160" y2="282" stroke="#555" stroke-width="0.4"/>
    <text x="60" y="350" fill="#3a3a3a" font-family="system-ui, Inter, sans-serif" font-size="10">Start À timer / checklist</text>
    <line x1="50" y1="420" x2="390" y2="420" stroke="#2a2a2a"/>
    <text x="210" y="450" text-anchor="middle" fill="#4a4a4a" font-family="system-ui, Inter, sans-serif" font-size="10">[ footer ]</text>
  </g>
  <g id="B" transform="translate(440,0)">
    <rect x="40" y="80" width="360" height="400" rx="40" fill="none" stroke="#b8b8b8" stroke-width="2"/>
    <rect x="175" y="100" width="90" height="24" rx="10" fill="none" stroke="#6a6a6a" stroke-width="1"/>
    <line x1="60" y1="160" x2="180" y2="160" stroke="#666" stroke-width="0.5"/>
    <line x1="60" y1="180" x2="100" y2="182" stroke="#666" stroke-width="0.5"/>
    <line x1="60" y1="220" x2="320" y2="222" stroke="#777" stroke-width="0.6" stroke-linecap="round"/>
    <line x1="60" y1="240" x2="300" y2="238" stroke="#777" stroke-width="0.6" stroke-linecap="round"/>
    <line x1="60" y1="260" x2="180" y2="262" stroke="#777" stroke-width="0.6" stroke-linecap="round"/>
    <line x1="60" y1="300" x2="160" y2="298" stroke="#555" stroke-width="0.4"/>
    <line x1="60" y1="315" x2="200" y2="318" stroke="#555" stroke-width="0.4"/>
    <text x="60" y="360" fill="#3a3a3a" font-family="system-ui, Inter, sans-serif" font-size="10">Capture Æ brain dump to vault</text>
    <line x1="50" y1="420" x2="390" y2="420" stroke="#2a2a2a"/>
  </g>
  <g id="C" transform="translate(880,0)">
    <rect x="40" y="80" width="360" height="400" rx="40" fill="none" stroke="#b8b8b8" stroke-width="2"/>
    <rect x="175" y="100" width="90" height="24" rx="10" fill="none" stroke="#6a6a6a" stroke-width="1"/>
    <line x1="60" y1="170" x2="140" y2="170" stroke="#666" stroke-width="0.5"/>
    <line x1="60" y1="190" x2="90" y2="192" stroke="#666" stroke-width="0.5"/>
    <line x1="60" y1="230" x2="250" y2="232" stroke="#777" stroke-width="0.6" stroke-linecap="round"/>
    <line x1="60" y1="250" x2="200" y2="248" stroke="#777" stroke-width="0.6" stroke-linecap="round"/>
    <line x1="60" y1="270" x2="280" y2="272" stroke="#777" stroke-width="0.6" stroke-linecap="round"/>
    <rect x="60" y="300" width="200" height="32" rx="8" fill="none" stroke="#5a5a5a" stroke-width="1"/>
    <line x1="80" y1="316" x2="200" y2="318" stroke="#555" stroke-width="0.4"/>
    <line x1="60" y1="350" x2="160" y2="350" stroke="#3a3a3a" stroke-width="0.3"/>
    <text x="60" y="400" fill="#3a3a3a" font-family="system-ui, Inter, sans-serif" font-size="10">Seal vault À set Disconnected</text>
    <line x1="50" y1="420" x2="390" y2="420" stroke="#2a2a2a"/>
  </g>
  <g id="D" transform="translate(1320,0)">
    <rect x="40" y="80" width="360" height="400" rx="40" fill="none" stroke="#b8b8b8" stroke-width="2"/>
    <rect x="175" y="100" width="90" height="24" rx="10" fill="none" stroke="#6a6a6a" stroke-width="1"/>
    <line x1="60" y1="200" x2="120" y2="200" stroke="#666" stroke-width="0.5"/>
    <line x1="60" y1="220" x2="200" y2="222" stroke="#666" stroke-width="0.5"/>
    <line x1="60" y1="260" x2="300" y2="262" stroke="#777" stroke-width="0.6" stroke-linecap="round"/>
    <line x1="60" y1="280" x2="220" y2="278" stroke="#777" stroke-width="0.6" stroke-linecap="round"/>
    <line x1="60" y1="300" x2="180" y2="302" stroke="#777" stroke-width="0.6" stroke-linecap="round"/>
    <line x1="60" y1="340" x2="140" y2="338" stroke="#555" stroke-width="0.4"/>
    <line x1="60" y1="355" x2="200" y2="358" stroke="#555" stroke-width="0.4"/>
    <line x1="60" y1="370" x2="120" y2="368" stroke="#555" stroke-width="0.4"/>
    <text x="60" y="400" fill="#3a3a3a" font-family="system-ui, Inter, sans-serif" font-size="10">Done À analytics handoff_complete</text>
    <line x1="50" y1="420" x2="390" y2="420" stroke="#2a2a2a"/>
  </g>
  <!-- arrows between -->
  <path d="M 410 280 L 480 280" fill="none" stroke="#3a3a3a" stroke-width="1.2"/>
  <path d="M 475 275 L 485 280 L 475 285 Z" fill="#3a3a3a" stroke="none"/>
  <path d="M 850 280 L 920 280" fill="none" stroke="#3a3a3a" stroke-width="1.2"/>
  <path d="M 915 275 L 925 280 L 915 285 Z" fill="#3a3a3a" stroke="none"/>
  <path d="M 1290 280 L 1360 280" fill="none" stroke="#3a3a3a" stroke-width="1.2"/>
  <path d="M 1355 275 L 1365 280 L 1355 285 Z" fill="#3a3a3a" stroke="none"/>
</svg>
